<svg width="50" height="38" viewBox="0 0 50 38" fill="none" xmlns="http://www.w3.org/2000/svg">
<path d="M50 5.36877V34.3459C50 36.2292 48.475 37.7542 46.5917 37.7542H38.6354V18.4375L25 28.6667L11.3646 18.4375V37.7563H3.40833C2.96057 37.7563 2.51719 37.668 2.10354 37.4966C1.68989 37.3252 1.31406 37.074 0.997541 36.7573C0.681021 36.4405 0.430009 36.0646 0.258846 35.6508C0.0876841 35.237 -0.000273058 34.7936 6.36774e-07 34.3459V5.36877C6.36774e-07 1.15419 4.81042 -1.25206 8.18125 1.27711L11.3646 3.66669L25 13.8917L38.6354 3.66252L41.8187 1.27711C45.1875 -1.24998 50 1.15419 50 5.36877Z" fill="#134E4A"/>
</svg>
